<?xml version="1.0" encoding="utf-8"?>
<svg xmlns="http://www.w3.org/2000/svg" viewBox="59.194 102.0708 65.4545 65.4545" width="65.4545px" height="65.4545px">
  <defs>
    <linearGradient id="paint0_linear_2524_2362" x1="34.9514" y1="48.1863" x2="49.8194" y2="66.9607" gradientUnits="userSpaceOnUse">
      <stop stop-color="#3056D3"/>
      <stop offset="1" stop-color="white" stop-opacity="0"/>
    </linearGradient>
    <linearGradient id="paint1_linear_2524_2362" x1="44.5481" y1="32.0522" x2="44.4738" y2="51.5767" gradientUnits="userSpaceOnUse">
      <stop stop-color="#3056D3"/>
      <stop offset="1" stop-color="white" stop-opacity="0"/>
    </linearGradient>
  </defs>
  <path d="M32.8717 77.5575C50.9464 77.5575 65.5989 62.905 65.5989 44.8302C65.5989 26.7555 50.9464 12.103 32.8717 12.103C14.7969 12.103 0.144409 26.7555 0.144409 44.8302C0.144409 62.905 14.7969 77.5575 32.8717 77.5575Z" fill="white" transform="matrix(0.9999999999999999, 0, 0, 0.9999999999999999, 59.04954528808593, 89.9678497314453)"/>
  <path d="M51.8019 67.0049L25.399 32.0522H19.8078V58.6276H24.2807V37.7327L48.2906 69.7097C49.5218 68.8859 50.6946 67.9815 51.8019 67.0049Z" fill="url(#paint0_linear_2524_2362)" transform="matrix(0.9999999999999999, 0, 0, 0.9999999999999999, 59.04954528808593, 89.9678497314453)"/>
  <path d="M46.7635 32.0522H42.3324V58.6387H46.7635V32.0522Z" fill="url(#paint1_linear_2524_2362)" transform="matrix(0.9999999999999999, 0, 0, 0.9999999999999999, 59.04954528808593, 89.9678497314453)"/>
</svg>