<?xml version="1.0" encoding="utf-8"?>
<svg xmlns="http://www.w3.org/2000/svg" viewBox="141.1417 88.4129 65.4545 65.4545" width="65.4545px" height="65.4545px">
  <defs>
    <clipPath id="clip0_2527_2099">
      <rect width="256.909" height="90" fill="white"/>
    </clipPath>
    <linearGradient id="paint0_linear_2527_2099" x1="34.807" y1="47.5378" x2="49.675" y2="66.3122" gradientUnits="userSpaceOnUse">
      <stop stop-color="white"/>
      <stop offset="1" stop-color="white" stop-opacity="0"/>
    </linearGradient>
    <linearGradient id="paint1_linear_2527_2099" x1="44.4037" y1="31.4037" x2="44.3294" y2="50.9282" gradientUnits="userSpaceOnUse">
      <stop stop-color="white"/>
      <stop offset="1" stop-color="white" stop-opacity="0"/>
    </linearGradient>
  </defs>
  <g clip-path="url(#clip0_2527_2099)" transform="matrix(0.9999999999999999, 0, 0, 0.9999999999999999, 141.14169311523435, 76.95838928222655)">
    <path d="M 20.698 52.023 C 32.05 52.023 41.253 43.087 41.253 32.063 C 41.253 21.039 32.05 12.103 20.698 12.103 C 9.346 12.103 0.144 21.039 0.144 32.063 C 0.144 43.087 9.346 52.023 20.698 52.023 Z" fill="white" style="" transform="matrix(0.9999999999999999, 0, 0, 0.9999999999999999, 59.04954528808593, 89.9678497314453)"/>
  <path d="M 32.587 45.587 L 16.005 24.27 L 12.494 24.27 L 12.494 40.478 L 15.303 40.478 L 15.303 27.735 L 30.383 47.237 C 31.155 46.734 31.892 46.183 32.587 45.587 Z" fill="url(#paint0_linear_2524_2362)" style="" transform="matrix(0.9999999999999999, 0, 0, 0.9999999999999999, 59.04954528808593, 89.9678497314453)"/>
  <path d="M 29.422 24.27 L 26.64 24.27 L 26.64 40.486 L 29.422 40.486 L 29.422 24.27 Z" fill="url(#paint1_linear_2524_2362)" style="" transform="matrix(0.9999999999999999, 0, 0, 0.9999999999999999, 59.04954528808593, 89.9678497314453)"/>


  </g>
</svg>